<svg width="4" height="24" viewBox="0 0 4 24" fill="none" xmlns="http://www.w3.org/2000/svg">
<path d="M0.338983 0H3.72881L3.38983 9.94625L2.98305 17.041H1.08475L0.711864 9.91231L0.338983 0ZM0.576271 20.5714C0.960452 20.1867 1.43503 19.9943 2 19.9943C2.56497 19.9943 3.03955 20.1867 3.42373 20.5714C3.80791 20.9562 4 21.4314 4 21.9972C4 22.5629 3.80791 23.0382 3.42373 23.4229C3.03955 23.8076 2.56497 24 2 24C1.43503 24 0.960452 23.8076 0.576271 23.4229C0.19209 23.0382 0 22.5629 0 21.9972C0 21.4314 0.19209 20.9562 0.576271 20.5714Z" fill="white"/>
</svg>
