<svg width="161" height="32" viewBox="0 0 161 32" fill="none" xmlns="http://www.w3.org/2000/svg">
<g clip-path="url(#clip0_54_615)">
<path d="M0 0H21.6497V2.92949H3.68364V5.74692H20.6804V8.72438H3.68364V11.5418H21.6497V14.5193H0V0Z" fill="white"/>
<path d="M40.7953 17.4329L34.5426 28.6385L34.3649 28.3342L28.2901 17.4968H23.8309V32.064H27.0622V21.9791L32.6685 32.064H36.2876L41.8616 22.059V32.064H45.1737V17.4968L40.7953 17.4329Z" fill="white"/>
<path d="M17.336 17.4329H4.31383C3.17105 17.4371 2.07628 17.8887 1.26821 18.6893C0.460135 19.49 0.00431724 20.5746 6.10352e-05 21.7069V27.7259C6.10352e-05 28.8595 0.454481 29.9466 1.26347 30.7481C2.07247 31.5497 3.16974 32.0001 4.31383 32.0001H17.336C17.9039 32.0022 18.4666 31.8931 18.9918 31.6792C19.517 31.4654 19.9944 31.1509 20.3967 30.7538C20.799 30.3567 21.1182 29.8848 21.336 29.3652C21.5538 28.8456 21.666 28.2885 21.6659 27.7259V21.7069C21.6617 20.5718 21.2036 19.4848 20.3921 18.6837C19.5805 17.8826 18.4816 17.4329 17.336 17.4329ZM18.6609 27.5659C18.6566 27.9537 18.4981 28.3241 18.2198 28.5968C17.9415 28.8696 17.5658 29.0227 17.1744 29.0226H4.49153C4.1001 29.0227 3.72444 28.8696 3.44615 28.5968C3.16785 28.3241 3.00941 27.9537 3.00516 27.5659V21.8829C3.00516 21.6895 3.04356 21.4981 3.11826 21.3194C3.19296 21.1407 3.3025 20.9784 3.44053 20.8416C3.57855 20.7048 3.7424 20.5963 3.92274 20.5223C4.10308 20.4483 4.29633 20.4103 4.49153 20.4103H17.1744C17.3696 20.4103 17.5629 20.4483 17.7433 20.5223C17.9236 20.5963 18.0875 20.7048 18.2255 20.8416C18.3635 20.9784 18.4729 21.1407 18.5476 21.3194C18.6223 21.4981 18.6609 21.6895 18.6609 21.8829V27.5659Z" fill="white"/>
<path d="M28.08 2.92949H45.206V-0.0479736H27.9023C26.7596 -0.0437566 25.6648 0.40787 24.8567 1.20851C24.0486 2.00916 23.5928 3.09386 23.5886 4.22614V10.2452C23.5886 11.3787 24.0431 12.4658 24.8521 13.2674C25.6611 14.0689 26.7582 14.5193 27.9023 14.5193H45.206V11.5418H28.08C27.6886 11.5418 27.313 11.3888 27.0347 11.1161C26.7565 10.8434 26.5979 10.4728 26.5937 10.085V4.53029C26.5757 4.3264 26.6008 4.12099 26.6674 3.92726C26.734 3.73352 26.8407 3.55574 26.9805 3.40512C27.1204 3.2545 27.2905 3.13439 27.4798 3.0525C27.6691 2.97061 27.8735 2.92872 28.08 2.92949Z" fill="white"/>
<path d="M54.9323 0V32" stroke="white" stroke-miterlimit="10"/>
<path d="M99.9121 7.09155H96.8747L86.0013 16.2641V7.09155H84.0302V22.4592H86.0013V18.8254L90.6867 14.8554L98.3449 22.3312L101.366 22.5393L92.1893 13.5908L99.9121 7.09155Z" fill="white"/>
<path d="M111.335 6.57935C106.165 6.57935 100.655 8.74042 100.655 14.7754C100.655 20.8105 106.165 23.0036 111.335 23.0036C116.505 23.0036 122.03 20.8425 122.03 14.7754C122.03 8.7084 116.456 6.57935 111.335 6.57935ZM111.335 20.9866C109.283 20.9866 102.594 20.5383 102.594 14.7274C102.594 8.91646 109.251 8.4842 111.302 8.4842C113.354 8.4842 120.027 8.94848 120.027 14.7274C120.027 20.5063 113.354 21.0346 111.335 21.0346V20.9866Z" fill="white"/>
<path d="M126.215 7.12354H124.26V22.4752L139.803 22.4912V20.5382H126.215V7.12354Z" fill="white"/>
<path d="M152.065 7.09155H150.256L141.321 22.4592H143.648L146.088 18.2491H156.347L158.787 22.4592H161.049L152.065 7.09155ZM147.218 16.2962L151.209 9.44478L155.184 16.2962H147.218Z" fill="white"/>
<path d="M76.1135 13.7509L69.9579 13.2066C68.213 13.0465 66.6135 12.7104 66.6135 11.3497C66.6135 9.06057 71.0565 8.53229 72.6237 8.53229C75.083 8.49755 77.5149 9.04644 79.7164 10.1331L80.3142 10.4693V8.24416L80.0719 8.13209C77.7225 7.10598 75.1745 6.60327 72.6076 6.65938C69.861 6.65938 64.6423 7.65187 64.6423 11.3497C64.6423 14.7594 68.2291 15.0956 70.1518 15.2717L76.4528 15.832C79.6841 16.1202 80.0072 17.0805 80.0072 17.8809C80.0072 20.7944 74.8857 21.0825 72.6884 21.0825C70.1189 21.0926 67.6007 20.3704 65.4341 19.0016L64.804 18.5854V20.9225L65.014 21.0346C67.3544 22.3499 69.9977 23.0444 72.6884 23.0515C75.4834 23.0515 81.9784 22.5392 81.9784 17.8809C81.9784 14.7113 79.0217 14.0231 76.1135 13.7509Z" fill="white"/>
<path d="M74.3363 2.92944L73.3023 3.93796L72.2844 2.92944H69.7963L72.1713 5.28257H74.4332L76.8244 2.92944H74.3363Z" fill="white"/>
</g>
<defs>
<clipPath id="clip0_54_615">
<rect width="161" height="32" fill="white"/>
</clipPath>
</defs>
</svg>
