<?xml version="1.0" standalone="no"?>
<!DOCTYPE svg PUBLIC "-//W3C//DTD SVG 20010904//EN"
 "http://www.w3.org/TR/2001/REC-SVG-20010904/DTD/svg10.dtd">
<svg version="1.0" xmlns="http://www.w3.org/2000/svg"
 width="700.000000pt" height="700.000000pt" viewBox="0 0 700.000000 700.000000"
 preserveAspectRatio="xMidYMid meet">
<metadata>
Created by potrace 1.14, written by Peter Selinger 2001-2017
</metadata>
<g transform="translate(0.000000,700.000000) scale(0.100000,-0.100000)"
fill="#000000" stroke="none">
<path d="M3955 5246 c-158 -50 -279 -175 -320 -331 -22 -86 -22 -813 0 -898
48 -184 197 -320 380 -347 46 -7 390 -9 990 -8 l920 3 3 162 2 163 -944 2
c-936 3 -945 3 -972 24 -15 11 -37 33 -48 48 -20 26 -21 42 -24 392 -3 405 -4
399 65 451 l36 28 944 3 943 2 0 160 0 160 -967 -1 c-754 0 -977 -3 -1008 -13z"/>
<path d="M1075 5208 c-3 -7 -4 -357 -3 -778 l3 -765 1153 -3 1152 -2 0 160 0
160 -955 0 -955 0 0 150 0 150 903 2 902 3 3 158 3 157 -906 0 -905 0 0 150 0
150 955 0 955 0 0 160 0 160 -1150 0 c-911 0 -1152 -3 -1155 -12z"/>
<path d="M1441 3369 c-131 -26 -261 -128 -320 -251 -46 -98 -53 -183 -49 -577
4 -317 5 -340 26 -399 45 -126 120 -210 241 -270 l75 -37 785 -3 c880 -3 857
-5 969 67 101 66 169 158 197 269 14 52 16 121 13 459 -3 389 -4 399 -26 455
-35 86 -100 169 -172 216 -120 81 -70 77 -930 78 -421 1 -785 -2 -809 -7z
m1535 -325 c19 -9 44 -31 57 -48 22 -30 22 -37 25 -383 3 -393 4 -388 -65
-440 l-36 -28 -715 -3 c-708 -2 -715 -2 -758 18 -26 13 -53 36 -66 58 -23 37
-23 40 -23 389 0 341 1 352 21 380 11 15 36 38 54 51 l33 22 719 0 c644 0 724
-2 754 -16z"/>
<path d="M5119 2773 c-185 -335 -339 -608 -343 -608 -4 0 -157 270 -340 600
l-332 600 -242 3 -242 2 0 -795 0 -795 175 0 175 0 2 545 3 545 299 -545 300
-545 195 0 196 0 300 545 300 545 3 -545 2 -545 180 0 180 0 0 793 0 794 -137
6 c-75 4 -182 7 -238 7 l-101 0 -335 -607z"/>
</g>
</svg>
