<svg width="122" height="121" viewBox="0 0 122 121" fill="none" xmlns="http://www.w3.org/2000/svg">
<path d="M64.9707 40.9832L65.2886 43.6005L66.7864 41.4308L85.494 14.3305L73.8181 45.1213L72.8833 47.5865L75.2178 46.3614L104.377 31.0592L79.7291 52.897L77.7558 54.6454L80.3922 54.6455L113.322 54.6469L81.3494 62.529L78.7896 63.1601L81.124 64.3854L110.282 79.69L78.308 71.8107L75.7481 71.1799L77.2457 73.3497L95.951 100.452L71.3015 78.6158L69.328 76.8676L69.6456 79.4848L73.6135 112.175L61.935 81.3854L61 78.9203L60.065 81.3854L48.3865 112.175L52.3544 79.4848L52.672 76.8676L50.6986 78.6158L26.049 100.452L44.7543 73.3497L46.2519 71.1799L43.692 71.8107L11.7184 79.69L40.876 64.3854L43.2104 63.1601L40.6506 62.529L8.67759 54.6469L41.6078 54.6455L44.2443 54.6454L42.2709 52.897L17.6232 31.0592L46.7822 46.3614L49.1167 47.5865L48.1819 45.1213L36.506 14.3305L55.2136 41.4308L56.7114 43.6005L57.0293 40.9832L61 8.29329L64.9707 40.9832Z" stroke="currentColor" stroke-width="2"/>
</svg>
